<svg xmlns="http://www.w3.org/2000/svg" width="128" height="128" fill="none" viewBox="0 0 128 128" id="json"><path fill="url(#paint0_linear_546_15781)" fill-rule="evenodd" d="M32.5 35C32.5 28.6487 37.6487 23.5 44 23.5H74.0785C76.5652 23.5 78.9528 24.475 80.7286 26.2157L89.8009 35.1086L89.8419 35.1488L89.881 35.1908L92.9546 38.4936C94.5905 40.2516 95.5 42.5639 95.5 44.9654V93C95.5 99.3513 90.3513 104.5 84 104.5H44C37.6487 104.5 32.5 99.3513 32.5 93V90C32.5 88.6193 33.6193 87.5 35 87.5C36.3807 87.5 37.5 88.6193 37.5 90V93C37.5 96.5899 40.4101 99.5 44 99.5H84C87.5899 99.5 90.5 96.5899 90.5 93V46.5H79C75.9624 46.5 73.5 44.0376 73.5 41V28.5H44C40.4101 28.5 37.5 31.4101 37.5 35V54.5C37.5 55.8807 36.3807 57 35 57C33.6193 57 32.5 55.8807 32.5 54.5V35ZM86.2599 38.6391L88.9222 41.5H79C78.7239 41.5 78.5 41.2761 78.5 41V31.0327L86.2599 38.6391ZM46.2126 75.5998C46.0393 75.4398 45.8926 75.3132 45.7726 75.2198C45.5993 75.0598 45.4593 74.9798 45.3526 74.9798C45.2593 74.9798 45.1459 75.0265 45.0126 75.1198L43.2726 76.7798C43.1259 76.9265 43.0526 77.0532 43.0526 77.1598C43.0526 77.2665 43.1259 77.3998 43.2726 77.5598L43.3126 77.5998C43.3259 77.5998 43.3393 77.6132 43.3526 77.6398L43.3926 77.6598C43.7126 78.0198 44.0793 78.3532 44.4926 78.6598C44.9059 78.9665 45.3459 79.2332 45.8126 79.4598C46.2926 79.6865 46.7859 79.8665 47.2926 79.9998C47.7993 80.1332 48.3126 80.1998 48.8326 80.1998C49.6459 80.1998 50.4059 80.0865 51.1126 79.8598C51.8193 79.6198 52.4326 79.2932 52.9526 78.8798C53.4726 78.4532 53.8793 77.9465 54.1726 77.3598C54.4793 76.7598 54.6326 76.0932 54.6326 75.3598C54.6326 74.6665 54.5126 74.0798 54.2726 73.5998C54.0326 73.1065 53.6926 72.6865 53.2526 72.3398C52.8259 71.9798 52.3126 71.6732 51.7126 71.4198C51.1126 71.1665 50.4593 70.9198 49.7526 70.6798C49.0193 70.4398 48.4659 70.2198 48.0926 70.0198C47.7193 69.8198 47.5326 69.5332 47.5326 69.1598C47.5326 68.7732 47.6926 68.5065 48.0126 68.3598C48.3326 68.2132 48.7126 68.1398 49.1526 68.1398C49.5793 68.1398 49.9793 68.2532 50.3526 68.4798C50.7393 68.6932 51.0659 68.9132 51.3326 69.1398L51.4326 69.2198C51.5259 69.2998 51.6059 69.3665 51.6726 69.4198C51.7526 69.4732 51.8393 69.4998 51.9326 69.4998C52.0526 69.4998 52.1659 69.4465 52.2726 69.3398L53.8126 67.6998C53.9859 67.4998 54.0726 67.3398 54.0726 67.2198C54.0726 67.0332 53.9059 66.7998 53.5726 66.5198C53.2393 66.2398 52.8459 65.9665 52.3926 65.6998C51.8593 65.3932 51.3059 65.1732 50.7326 65.0398C50.1726 64.9065 49.5926 64.8398 48.9926 64.8398C48.1926 64.8398 47.4659 64.9398 46.8126 65.1398C46.1593 65.3265 45.5993 65.5998 45.1326 65.9598C44.6793 66.3198 44.3259 66.7532 44.0726 67.2598C43.8193 67.7665 43.6926 68.3332 43.6926 68.9598C43.6926 70.1332 44.0859 71.0998 44.8726 71.8598C45.6726 72.6198 46.8793 73.2798 48.4926 73.8398C48.6793 73.9065 48.8926 73.9865 49.1326 74.0798C49.3859 74.1598 49.6193 74.2665 49.8326 74.3998C50.0593 74.5198 50.2526 74.6598 50.4126 74.8198C50.5726 74.9798 50.6526 75.1665 50.6526 75.3798C50.6526 75.7532 50.5259 76.0798 50.2726 76.3598C50.0326 76.6398 49.5659 76.7798 48.8726 76.7798C48.5126 76.7798 48.1593 76.7198 47.8126 76.5998C47.4793 76.4665 47.1459 76.2865 46.8126 76.0598C46.5859 75.8998 46.3859 75.7465 46.2126 75.5998ZM36.8001 65.5598V75.4798C36.8001 75.7865 36.6734 76.0532 36.4201 76.2798C36.1801 76.4932 35.9068 76.5998 35.6001 76.5998C35.3868 76.5998 35.2068 76.5665 35.0601 76.4998C34.9134 76.4198 34.7868 76.3332 34.6801 76.2398C34.5734 76.1465 34.4734 76.0665 34.3801 75.9998C34.2868 75.9198 34.1934 75.8798 34.1001 75.8798C34.0334 75.8798 33.9734 75.8998 33.9201 75.9398C33.8668 75.9665 33.8134 75.9998 33.7601 76.0398L32.0201 77.6798C31.9134 77.7465 31.8601 77.8732 31.8601 78.0598C31.8601 78.1532 31.8668 78.2065 31.8801 78.2198C32.3201 78.8732 32.8868 79.3732 33.5801 79.7198C34.2734 80.0532 35.0134 80.2198 35.8001 80.2198C36.4534 80.2198 37.0734 80.0998 37.6601 79.8598C38.2601 79.6065 38.7801 79.2665 39.2201 78.8398C39.6734 78.3998 40.0268 77.8932 40.2801 77.3198C40.5468 76.7465 40.6801 76.1332 40.6801 75.4798V65.6798C40.6801 65.3332 40.5001 65.1598 40.1401 65.1598H37.1801C36.9268 65.1732 36.8001 65.3065 36.8001 65.5598ZM60.2176 72.5798C60.2176 73.1398 60.3109 73.6598 60.4976 74.1398C60.6843 74.6198 60.9443 75.0398 61.2776 75.3998C61.6109 75.7465 62.0109 76.0265 62.4776 76.2398C62.9443 76.4398 63.4509 76.5398 63.9976 76.5398C64.5443 76.5398 65.0509 76.4398 65.5176 76.2398C65.9843 76.0265 66.3843 75.7465 66.7176 75.3998C67.0509 75.0398 67.3109 74.6198 67.4976 74.1398C67.6843 73.6598 67.7776 73.1398 67.7776 72.5798C67.7776 72.0332 67.6843 71.5198 67.4976 71.0398C67.3109 70.5598 67.0509 70.1398 66.7176 69.7798C66.3843 69.4198 65.9843 69.1398 65.5176 68.9398C65.0509 68.7265 64.5443 68.6198 63.9976 68.6198C63.4509 68.6198 62.9443 68.7265 62.4776 68.9398C62.0109 69.1398 61.6109 69.4198 61.2776 69.7798C60.9443 70.1398 60.6843 70.5598 60.4976 71.0398C60.3109 71.5198 60.2176 72.0332 60.2176 72.5798ZM56.3576 72.5998C56.3576 71.5332 56.5576 70.5398 56.9576 69.6198C57.3576 68.6865 57.8976 67.8732 58.5776 67.1798C59.2709 66.4865 60.0843 65.9398 61.0176 65.5398C61.9509 65.1398 62.9443 64.9398 63.9976 64.9398C65.0509 64.9398 66.0376 65.1398 66.9576 65.5398C67.8909 65.9398 68.7043 66.4865 69.3976 67.1798C70.0909 67.8732 70.6376 68.6865 71.0376 69.6198C71.4376 70.5398 71.6376 71.5332 71.6376 72.5998C71.6376 73.6532 71.4376 74.6465 71.0376 75.5798C70.6376 76.4998 70.0909 77.3065 69.3976 77.9998C68.7043 78.6798 67.8909 79.2198 66.9576 79.6198C66.0376 80.0198 65.0509 80.2198 63.9976 80.2198C62.9443 80.2198 61.9509 80.0198 61.0176 79.6198C60.0843 79.2198 59.2709 78.6798 58.5776 77.9998C57.8976 77.3065 57.3576 76.4998 56.9576 75.5798C56.5576 74.6465 56.3576 73.6532 56.3576 72.5998ZM77.8089 70.9198L83.0689 79.5598C83.2422 79.8532 83.4822 79.9998 83.7889 79.9998H86.7289C87.0489 79.9998 87.2089 79.8532 87.2089 79.5598V65.5998C87.2089 65.4665 87.1555 65.3598 87.0489 65.2798C86.9422 65.1998 86.8355 65.1598 86.7289 65.1598H83.9489C83.8022 65.1598 83.6889 65.2065 83.6089 65.2998C83.5289 65.3798 83.4889 65.4798 83.4889 65.5998V73.6998L78.4889 65.5998C78.3022 65.3065 78.0622 65.1598 77.7689 65.1598H74.5289C74.3822 65.1598 74.2755 65.2065 74.2089 65.2998C74.1422 65.3798 74.1089 65.4798 74.1089 65.5998V79.5598C74.1089 79.8532 74.2489 79.9998 74.5289 79.9998H77.3289C77.6489 79.9998 77.8089 79.8532 77.8089 79.5598V70.9198Z" clip-rule="evenodd"></path><path fill="url(#paint1_linear_546_15781)" d="M80.7286 26.2157L80.9036 26.0372L80.9036 26.0372L80.7286 26.2157ZM89.8009 35.1086L89.9759 34.93L89.9759 34.93L89.8009 35.1086ZM89.8419 35.1488L90.0251 34.9783L90.0169 34.9702L89.8419 35.1488ZM89.881 35.1908L89.698 35.3611L89.698 35.3611L89.881 35.1908ZM92.9546 38.4936L93.1376 38.3233L93.1376 38.3233L92.9546 38.4936ZM90.5 46.5H90.75V46.25H90.5V46.5ZM73.5 28.5H73.75V28.25H73.5V28.5ZM88.9222 41.5V41.75H89.4964L89.1052 41.3297L88.9222 41.5ZM86.2599 38.6391L86.4431 38.4686L86.4349 38.4605L86.2599 38.6391ZM78.5 31.0327L78.675 30.8542L78.25 30.4376V31.0327H78.5ZM45.7726 75.2198L45.603 75.4035L45.6108 75.4107L45.6191 75.4172L45.7726 75.2198ZM46.2126 75.5998L46.0429 75.7837L46.0511 75.7907L46.2126 75.5998ZM45.0126 75.1198L44.8692 74.915L44.8537 74.9259L44.84 74.939L45.0126 75.1198ZM43.2726 76.7798L43.1 76.5989L43.0958 76.6031L43.2726 76.7798ZM43.2726 77.5598L43.0881 77.7289L43.0958 77.7366L43.2726 77.5598ZM43.3126 77.5998L43.1358 77.7766L43.2091 77.8498H43.3126V77.5998ZM43.3526 77.6398L43.129 77.7517L43.1663 77.8262L43.2408 77.8634L43.3526 77.6398ZM43.3926 77.6598L43.5795 77.4938L43.5475 77.4578L43.5044 77.4362L43.3926 77.6598ZM45.8126 79.4598L45.7034 79.6847L45.7059 79.6859L45.8126 79.4598ZM47.2926 79.9998L47.3562 79.7581L47.3562 79.7581L47.2926 79.9998ZM51.1126 79.8598L51.189 80.0979L51.193 80.0966L51.1126 79.8598ZM52.9526 78.8798L53.1082 79.0756L53.1112 79.0731L52.9526 78.8798ZM54.1726 77.3598L53.95 77.2461L53.949 77.248L54.1726 77.3598ZM54.2726 73.5998L54.0478 73.7092L54.049 73.7116L54.2726 73.5998ZM53.2526 72.3398L53.0913 72.531L53.0979 72.5362L53.2526 72.3398ZM51.7126 71.4198L51.6154 71.6502L51.6154 71.6502L51.7126 71.4198ZM49.7526 70.6798L49.833 70.4431L49.8304 70.4422L49.7526 70.6798ZM48.0126 68.3598L48.1168 68.5871L48.1168 68.5871L48.0126 68.3598ZM50.3526 68.4798L50.2228 68.6937L50.2318 68.6987L50.3526 68.4798ZM51.3326 69.1398L51.1706 69.3304L51.1764 69.3351L51.3326 69.1398ZM51.4326 69.2198L51.5954 69.0299L51.5888 69.0246L51.4326 69.2198ZM51.6726 69.4198L51.5164 69.6151L51.5249 69.6218L51.5339 69.6279L51.6726 69.4198ZM52.2726 69.3398L52.4495 69.5167L52.4549 69.511L52.2726 69.3398ZM53.8126 67.6998L53.995 67.8711L54.0015 67.8636L53.8126 67.6998ZM53.5726 66.5198L53.4118 66.7113L53.4118 66.7113L53.5726 66.5198ZM52.3926 65.6998L52.5194 65.4844L52.5172 65.4831L52.3926 65.6998ZM50.7326 65.0398L50.6747 65.283L50.676 65.2833L50.7326 65.0398ZM46.8126 65.1398L46.8813 65.3803L46.8858 65.3789L46.8126 65.1398ZM45.1326 65.9598L44.9799 65.7619L44.9771 65.7641L45.1326 65.9598ZM44.0726 67.2598L43.849 67.148L43.849 67.148L44.0726 67.2598ZM44.8726 71.8598L44.6989 72.0396L44.7004 72.0411L44.8726 71.8598ZM48.4926 73.8398L48.5767 73.6044L48.5746 73.6037L48.4926 73.8398ZM49.1326 74.0798L49.042 74.3128L49.0496 74.3158L49.0573 74.3182L49.1326 74.0798ZM49.8326 74.3998L49.7001 74.6118L49.7077 74.6166L49.7156 74.6208L49.8326 74.3998ZM50.2726 76.3598L50.0872 76.1921L50.0828 76.1971L50.2726 76.3598ZM47.8126 76.5998L47.7197 76.8322L47.7308 76.8361L47.8126 76.5998ZM46.8126 76.0598L46.6684 76.2641L46.672 76.2666L46.8126 76.0598ZM36.4201 76.2798L36.5862 76.4667L36.5868 76.4662L36.4201 76.2798ZM35.0601 76.4998L34.9404 76.7193L34.9484 76.7237L34.9567 76.7274L35.0601 76.4998ZM34.3801 75.9998L34.2174 76.1897L34.2258 76.1969L34.2348 76.2033L34.3801 75.9998ZM33.9201 75.9398L34.0319 76.1634L34.0521 76.1534L34.0701 76.1398L33.9201 75.9398ZM33.7601 76.0398L33.6101 75.8398L33.5989 75.8483L33.5886 75.8579L33.7601 76.0398ZM32.0201 77.6798L32.1526 77.8918L32.1736 77.8787L32.1916 77.8618L32.0201 77.6798ZM31.8801 78.2198L32.0875 78.0802L32.074 78.0602L32.0569 78.0431L31.8801 78.2198ZM33.5801 79.7198L33.4683 79.9435L33.4718 79.9452L33.5801 79.7198ZM37.6601 79.8598L37.7548 80.0912L37.7574 80.0902L37.6601 79.8598ZM39.2201 78.8398L39.3941 79.0193L39.3942 79.0192L39.2201 78.8398ZM40.2801 77.3198L40.0534 77.2144L40.0514 77.2188L40.2801 77.3198ZM37.1801 65.1598V64.9095L37.167 64.9102L37.1801 65.1598ZM61.2776 75.3998L61.0941 75.5697L61.0974 75.5731L61.2776 75.3998ZM62.4776 76.2398L62.3736 76.4673L62.3791 76.4696L62.4776 76.2398ZM65.5176 76.2398L65.6161 76.4697L65.6215 76.4672L65.5176 76.2398ZM66.7176 75.3998L66.8978 75.5732L66.9011 75.5697L66.7176 75.3998ZM65.5176 68.9398L65.4136 69.1673L65.4191 69.1696L65.5176 68.9398ZM62.4776 68.9398L62.5761 69.1697L62.5815 69.1672L62.4776 68.9398ZM56.9576 69.6198L57.1869 69.7195L57.1874 69.7183L56.9576 69.6198ZM58.5776 67.1798L58.4008 67.0031L58.3991 67.0048L58.5776 67.1798ZM61.0176 65.5398L61.1161 65.7696L61.1161 65.7696L61.0176 65.5398ZM66.9576 65.5398L66.8579 65.7691L66.8591 65.7696L66.9576 65.5398ZM71.0376 69.6198L70.8078 69.7183L70.8083 69.7195L71.0376 69.6198ZM71.0376 75.5798L71.2669 75.6795L71.2674 75.6783L71.0376 75.5798ZM69.3976 77.9998L69.5727 78.1783L69.5744 78.1766L69.3976 77.9998ZM66.9576 79.6198L66.8591 79.3901L66.8579 79.3906L66.9576 79.6198ZM61.0176 79.6198L61.1161 79.3901L61.1161 79.3901L61.0176 79.6198ZM58.5776 77.9998L58.3991 78.1749L58.4026 78.1783L58.5776 77.9998ZM56.9576 75.5798L56.7278 75.6783L56.7283 75.6795L56.9576 75.5798ZM83.0689 79.5598L83.2841 79.4327L83.2824 79.4298L83.0689 79.5598ZM77.8089 70.9198L78.0224 70.7898L77.5589 70.0284V70.9198H77.8089ZM87.0489 65.2798L87.1989 65.0798L87.1989 65.0798L87.0489 65.2798ZM83.6089 65.2998L83.7856 65.4766L83.7924 65.4698L83.7987 65.4625L83.6089 65.2998ZM83.4889 73.6998L83.2761 73.8312L83.7389 74.5808V73.6998H83.4889ZM78.4889 65.5998L78.7016 65.4685L78.6998 65.4656L78.4889 65.5998ZM74.2089 65.2998L74.4009 65.4599L74.4069 65.4527L74.4123 65.4452L74.2089 65.2998ZM44 23.25C37.5107 23.25 32.25 28.5107 32.25 35H32.75C32.75 28.7868 37.7868 23.75 44 23.75V23.25ZM74.0785 23.25H44V23.75H74.0785V23.25ZM80.9036 26.0372C79.081 24.2507 76.6306 23.25 74.0785 23.25V23.75C76.4998 23.75 78.8245 24.6994 80.5536 26.3942L80.9036 26.0372ZM89.9759 34.93L80.9036 26.0372L80.5536 26.3942L89.6259 35.2871L89.9759 34.93ZM90.0169 34.9702L89.9759 34.93L89.6259 35.2871L89.6669 35.3273L90.0169 34.9702ZM90.0641 35.0205L90.0249 34.9785L89.6589 35.3191L89.698 35.3611L90.0641 35.0205ZM93.1376 38.3233L90.0641 35.0205L89.698 35.3611L92.7715 38.6639L93.1376 38.3233ZM95.75 44.9654C95.75 42.5007 94.8166 40.1275 93.1376 38.3233L92.7715 38.6639C94.3645 40.3756 95.25 42.6271 95.25 44.9654H95.75ZM95.75 93V44.9654H95.25V93H95.75ZM84 104.75C90.4893 104.75 95.75 99.4894 95.75 93H95.25C95.25 99.2132 90.2132 104.25 84 104.25V104.75ZM44 104.75H84V104.25H44V104.75ZM32.25 93C32.25 99.4893 37.5107 104.75 44 104.75V104.25C37.7868 104.25 32.75 99.2132 32.75 93H32.25ZM32.25 90V93H32.75V90H32.25ZM35 87.25C33.4812 87.25 32.25 88.4812 32.25 90H32.75C32.75 88.7574 33.7574 87.75 35 87.75V87.25ZM37.75 90C37.75 88.4812 36.5188 87.25 35 87.25V87.75C36.2426 87.75 37.25 88.7574 37.25 90H37.75ZM37.75 93V90H37.25V93H37.75ZM44 99.25C40.5482 99.25 37.75 96.4518 37.75 93H37.25C37.25 96.7279 40.2721 99.75 44 99.75V99.25ZM84 99.25H44V99.75H84V99.25ZM90.25 93C90.25 96.4518 87.4518 99.25 84 99.25V99.75C87.7279 99.75 90.75 96.7279 90.75 93H90.25ZM90.25 46.5V93H90.75V46.5H90.25ZM79 46.75H90.5V46.25H79V46.75ZM73.25 41C73.25 44.1756 75.8244 46.75 79 46.75V46.25C76.1005 46.25 73.75 43.8995 73.75 41H73.25ZM73.25 28.5V41H73.75V28.5H73.25ZM44 28.75H73.5V28.25H44V28.75ZM37.75 35C37.75 31.5482 40.5482 28.75 44 28.75V28.25C40.2721 28.25 37.25 31.2721 37.25 35H37.75ZM37.75 54.5V35H37.25V54.5H37.75ZM35 57.25C36.5188 57.25 37.75 56.0188 37.75 54.5H37.25C37.25 55.7426 36.2426 56.75 35 56.75V57.25ZM32.25 54.5C32.25 56.0188 33.4812 57.25 35 57.25V56.75C33.7574 56.75 32.75 55.7426 32.75 54.5H32.25ZM32.25 35V54.5H32.75V35H32.25ZM89.1052 41.3297L86.4429 38.4687L86.0769 38.8094L88.7392 41.6703L89.1052 41.3297ZM79 41.75H88.9222V41.25H79V41.75ZM78.25 41C78.25 41.4142 78.5858 41.75 79 41.75V41.25C78.8619 41.25 78.75 41.1381 78.75 41H78.25ZM78.25 31.0327V41H78.75V31.0327H78.25ZM86.4349 38.4605L78.675 30.8542L78.325 31.2112L86.0849 38.8176L86.4349 38.4605ZM45.6191 75.4172C45.7314 75.5045 45.8724 75.626 46.043 75.7835L46.3822 75.4161C46.2062 75.2537 46.0538 75.1218 45.9261 75.0225L45.6191 75.4172ZM45.3526 75.2298C45.3457 75.2298 45.3635 75.2283 45.4136 75.2569C45.4615 75.2843 45.5245 75.331 45.603 75.4035L45.9422 75.0361C45.8474 74.9487 45.7537 74.8754 45.6616 74.8228C45.5717 74.7714 45.4662 74.7298 45.3526 74.7298V75.2298ZM45.156 75.3246C45.275 75.2414 45.3363 75.2298 45.3526 75.2298V74.7298C45.1823 74.7298 45.0169 74.8117 44.8692 74.915L45.156 75.3246ZM43.4452 76.9607L45.1852 75.3007L44.84 74.939L43.1 76.599L43.4452 76.9607ZM43.3026 77.1598C43.3026 77.1639 43.3015 77.1489 43.324 77.1101C43.3463 77.0716 43.3856 77.0204 43.4494 76.9566L43.0958 76.6031C42.9412 76.7576 42.8026 76.9469 42.8026 77.1598H43.3026ZM43.4569 77.3909C43.3918 77.3199 43.3506 77.2629 43.3267 77.2194C43.3022 77.1748 43.3026 77.1569 43.3026 77.1598H42.8026C42.8026 77.3681 42.9366 77.5632 43.0883 77.7288L43.4569 77.3909ZM43.4894 77.4231L43.4494 77.3831L43.0958 77.7366L43.1358 77.7766L43.4894 77.4231ZM43.5762 77.528C43.5637 77.5029 43.5428 77.4665 43.5094 77.4331C43.4755 77.3991 43.409 77.3498 43.3126 77.3498V77.8498C43.2296 77.8498 43.1764 77.8072 43.1558 77.7866C43.1449 77.7757 43.138 77.7662 43.1346 77.761C43.131 77.7556 43.1293 77.7522 43.129 77.7517L43.5762 77.528ZM43.5044 77.4362L43.4644 77.4162L43.2408 77.8634L43.2808 77.8834L43.5044 77.4362ZM44.6416 78.4591C44.2411 78.1619 43.8873 77.8401 43.5795 77.4938L43.2058 77.8259C43.5379 78.1996 43.9175 78.5444 44.3436 78.8606L44.6416 78.4591ZM45.9218 79.235C45.469 79.015 45.0423 78.7564 44.6416 78.4591L44.3436 78.8606C44.7695 79.1766 45.2229 79.4513 45.7034 79.6847L45.9218 79.235ZM47.3562 79.7581C46.8646 79.6287 46.3857 79.454 45.9194 79.2338L45.7059 79.6859C46.1995 79.919 46.7073 80.1043 47.229 80.2416L47.3562 79.7581ZM48.8326 79.9498C48.3342 79.9498 47.8423 79.886 47.3562 79.7581L47.229 80.2416C47.7563 80.3804 48.291 80.4498 48.8326 80.4498V79.9498ZM51.0363 79.6218C50.3565 79.8398 49.6225 79.9498 48.8326 79.9498V80.4498C49.6694 80.4498 50.4554 80.3332 51.189 80.0979L51.0363 79.6218ZM52.797 78.6841C52.3022 79.0775 51.715 79.3912 51.0322 79.6231L51.193 80.0966C51.9236 79.8484 52.5631 79.5088 53.1082 79.0756L52.797 78.6841ZM53.949 77.248C53.6718 77.8025 53.2876 78.2816 52.794 78.6866L53.1112 79.0731C53.6576 78.6247 54.0868 78.0905 54.3962 77.4716L53.949 77.248ZM54.3826 75.3598C54.3826 76.0572 54.2371 76.6843 53.95 77.2461L54.3952 77.4736C54.7214 76.8354 54.8826 76.1292 54.8826 75.3598H54.3826ZM54.049 73.7116C54.2673 74.1483 54.3826 74.6944 54.3826 75.3598H54.8826C54.8826 74.6386 54.7579 74.0114 54.4962 73.488L54.049 73.7116ZM53.0979 72.5362C53.5089 72.86 53.8247 73.2505 54.0478 73.7092L54.4974 73.4905C54.2406 72.9625 53.8763 72.513 53.4073 72.1435L53.0979 72.5362ZM51.6154 71.6502C52.196 71.8953 52.6868 72.1896 53.0914 72.5309L53.4138 72.1488C52.965 71.7701 52.4293 71.4511 51.8099 71.1895L51.6154 71.6502ZM49.6722 70.9166C50.374 71.1549 51.0216 71.3995 51.6154 71.6502L51.8099 71.1895C51.2036 70.9336 50.5446 70.6848 49.833 70.4431L49.6722 70.9166ZM47.9746 70.2402C48.3672 70.4506 48.9369 70.6759 49.6748 70.9174L49.8304 70.4422C49.1016 70.2037 48.5646 69.9891 48.2107 69.7995L47.9746 70.2402ZM47.2826 69.1598C47.2826 69.3903 47.3409 69.6036 47.4631 69.7913C47.5842 69.9773 47.7595 70.125 47.9746 70.2402L48.2107 69.7995C48.0523 69.7147 47.9477 69.6191 47.8821 69.5184C47.8176 69.4194 47.7826 69.3027 47.7826 69.1598H47.2826ZM47.9084 68.1326C47.7089 68.2241 47.5475 68.3591 47.4382 68.5412C47.3299 68.7218 47.2826 68.9322 47.2826 69.1598H47.7826C47.7826 69.0009 47.8153 68.8845 47.867 68.7985C47.9177 68.7139 47.9964 68.6423 48.1168 68.5871L47.9084 68.1326ZM49.1526 67.8898C48.6854 67.8898 48.2682 67.9677 47.9084 68.1326L48.1168 68.5871C48.397 68.4587 48.7398 68.3898 49.1526 68.3898V67.8898ZM50.4824 68.2661C50.0709 68.0163 49.6262 67.8898 49.1526 67.8898V68.3898C49.5324 68.3898 49.8877 68.49 50.2229 68.6935L50.4824 68.2661ZM51.4945 68.9494C51.2123 68.7095 50.8711 68.4804 50.4734 68.2609L50.2318 68.6987C50.6075 68.906 50.9196 69.1169 51.1707 69.3303L51.4945 68.9494ZM51.5888 69.0246L51.4888 68.9446L51.1764 69.3351L51.2764 69.4151L51.5888 69.0246ZM51.8288 69.2246C51.765 69.1736 51.6873 69.1089 51.5953 69.03L51.2699 69.4097C51.3645 69.4908 51.4468 69.5594 51.5164 69.6151L51.8288 69.2246ZM51.9326 69.2498C51.8902 69.2498 51.8515 69.2387 51.8113 69.2118L51.5339 69.6279C51.6537 69.7077 51.7884 69.7498 51.9326 69.7498V69.2498ZM52.0958 69.1631C52.0233 69.2356 51.9703 69.2498 51.9326 69.2498V69.7498C52.1349 69.7498 52.3085 69.6575 52.4494 69.5166L52.0958 69.1631ZM53.6304 67.5287L52.0904 69.1687L52.4549 69.511L53.9949 67.871L53.6304 67.5287ZM53.8226 67.2198C53.8226 67.2198 53.8226 67.2216 53.8219 67.2256C53.8213 67.2296 53.82 67.2355 53.8175 67.2434C53.8125 67.2596 53.8034 67.2819 53.7878 67.3108C53.756 67.3694 53.7033 67.4442 53.6237 67.5361L54.0015 67.8636C54.0952 67.7555 54.1725 67.6503 54.2274 67.5489C54.2812 67.4497 54.3226 67.3375 54.3226 67.2198H53.8226ZM53.4118 66.7113C53.5698 66.844 53.6776 66.957 53.7442 67.0502C53.8124 67.1457 53.8226 67.1998 53.8226 67.2198H54.3226C54.3226 67.0532 54.2495 66.8973 54.151 66.7595C54.0509 66.6194 53.9088 66.4757 53.7334 66.3284L53.4118 66.7113ZM52.2659 65.9153C52.7096 66.1763 53.0911 66.4418 53.4118 66.7113L53.7334 66.3284C53.3875 66.0378 52.9823 65.7567 52.5194 65.4844L52.2659 65.9153ZM50.676 65.2833C51.2244 65.4109 51.7549 65.6216 52.268 65.9166L52.5172 65.4831C51.9636 65.1648 51.3875 64.9355 50.7892 64.7963L50.676 65.2833ZM48.9926 65.0898C49.5739 65.0898 50.1345 65.1544 50.6747 65.283L50.7905 64.7966C50.2108 64.6586 49.6113 64.5898 48.9926 64.5898V65.0898ZM46.8858 65.3789C47.5118 65.1873 48.2133 65.0898 48.9926 65.0898V64.5898C48.1719 64.5898 47.4201 64.6924 46.7394 64.9008L46.8858 65.3789ZM45.2853 66.1578C45.7234 65.8198 46.2538 65.5595 46.8813 65.3802L46.7439 64.8995C46.0648 65.0935 45.4752 65.3798 44.9799 65.7619L45.2853 66.1578ZM44.2962 67.3716C44.5329 66.8983 44.8627 66.4934 45.2881 66.1556L44.9771 65.7641C44.4959 66.1462 44.119 66.608 43.849 67.148L44.2962 67.3716ZM43.9426 68.9598C43.9426 68.3678 44.062 67.84 44.2962 67.3716L43.849 67.148C43.5765 67.693 43.4426 68.2985 43.4426 68.9598H43.9426ZM45.0463 71.68C44.3122 70.9708 43.9426 70.0709 43.9426 68.9598H43.4426C43.4426 70.1955 43.8597 71.2289 44.6989 72.0396L45.0463 71.68ZM48.5746 73.6037C46.9783 73.0496 45.8087 72.4043 45.0448 71.6786L44.7004 72.0411C45.5365 72.8353 46.7802 73.5101 48.4106 74.076L48.5746 73.6037ZM49.2232 73.8468C48.9817 73.7529 48.7661 73.672 48.5767 73.6044L48.4085 74.0753C48.5925 74.141 48.8036 74.2201 49.042 74.3128L49.2232 73.8468ZM49.9651 74.1878C49.7329 74.0427 49.4802 73.9274 49.2079 73.8414L49.0573 74.3182C49.2917 74.3922 49.5056 74.4903 49.7001 74.6118L49.9651 74.1878ZM50.5894 74.6431C50.4096 74.4633 50.1954 74.309 49.9496 74.1789L49.7156 74.6208C49.9232 74.7307 50.0956 74.8564 50.2358 74.9966L50.5894 74.6431ZM50.9026 75.3798C50.9026 75.0959 50.7931 74.8468 50.5894 74.6431L50.2358 74.9966C50.3521 75.1129 50.4026 75.2372 50.4026 75.3798H50.9026ZM50.458 76.5276C50.7524 76.2022 50.9026 75.8159 50.9026 75.3798H50.4026C50.4026 75.6904 50.2995 75.9575 50.0872 76.1921L50.458 76.5276ZM48.8726 77.0298C49.5801 77.0298 50.1467 76.8908 50.4624 76.5225L50.0828 76.1971C49.9185 76.3889 49.5518 76.5298 48.8726 76.5298V77.0298ZM47.7308 76.8361C48.1033 76.965 48.4842 77.0298 48.8726 77.0298V76.5298C48.541 76.5298 48.2153 76.4747 47.8944 76.3636L47.7308 76.8361ZM46.672 76.2666C47.0185 76.5022 47.3677 76.6912 47.7198 76.832L47.9055 76.3677C47.5908 76.2419 47.2734 76.0708 46.9532 75.8531L46.672 76.2666ZM46.0511 75.7907C46.2311 75.943 46.4371 76.1008 46.6684 76.2641L46.9568 75.8556C46.7348 75.6989 46.5408 75.5501 46.3741 75.409L46.0511 75.7907ZM37.0501 75.4798V65.5598H36.5501V75.4798H37.0501ZM36.5868 76.4662C36.8867 76.1978 37.0501 75.8658 37.0501 75.4798H36.5501C36.5501 75.7072 36.4602 75.9085 36.2534 76.0935L36.5868 76.4662ZM35.6001 76.8498C35.9711 76.8498 36.3028 76.7186 36.5862 76.4667L36.254 76.093C36.0574 76.2677 35.8425 76.3498 35.6001 76.3498V76.8498ZM34.9567 76.7274C35.1445 76.8128 35.3621 76.8498 35.6001 76.8498V76.3498C35.4114 76.3498 35.269 76.3202 35.1636 76.2723L34.9567 76.7274ZM34.5155 76.428C34.6381 76.5353 34.7804 76.6321 34.9404 76.7193L35.1798 76.2804C35.0465 76.2076 34.9354 76.1311 34.8447 76.0517L34.5155 76.428ZM34.2348 76.2033C34.3201 76.2642 34.4136 76.3389 34.5155 76.428L34.8447 76.0517C34.7333 75.9542 34.6268 75.8688 34.5254 75.7964L34.2348 76.2033ZM34.1001 76.1298C34.117 76.1298 34.1548 76.136 34.2174 76.1897L34.5428 75.81C34.4187 75.7037 34.2699 75.6298 34.1001 75.6298V76.1298ZM34.0701 76.1398C34.0802 76.1323 34.0875 76.1298 34.1001 76.1298V75.6298C33.9793 75.6298 33.8667 75.6674 33.7701 75.7398L34.0701 76.1398ZM33.9101 76.2398C33.9528 76.2078 33.9935 76.1827 34.0319 76.1634L33.8083 75.7162C33.7401 75.7503 33.6741 75.7919 33.6101 75.8398L33.9101 76.2398ZM32.1916 77.8618L33.9316 76.2218L33.5886 75.8579L31.8486 77.4979L32.1916 77.8618ZM32.1101 78.0598C32.1101 77.9145 32.1504 77.8932 32.1526 77.8918L31.8876 77.4678C31.6765 77.5998 31.6101 77.8319 31.6101 78.0598H32.1101ZM32.0569 78.0431C32.08 78.0661 32.0927 78.0886 32.099 78.1012C32.1057 78.1145 32.1092 78.1252 32.1108 78.1305C32.1139 78.1406 32.1139 78.1449 32.1132 78.1388C32.1126 78.1339 32.1117 78.1249 32.1111 78.111C32.1105 78.0973 32.1101 78.0804 32.1101 78.0598H31.6101C31.6101 78.1105 31.6118 78.1591 31.617 78.2009C31.6196 78.2214 31.6239 78.2474 31.6319 78.2742C31.6378 78.2939 31.6553 78.3486 31.7033 78.3966L32.0569 78.0431ZM33.6919 79.4962C33.0378 79.1692 32.5038 78.6984 32.0875 78.0802L31.6727 78.3595C32.1364 79.048 32.7358 79.5772 33.4683 79.9435L33.6919 79.4962ZM35.8001 79.9698C35.0501 79.9698 34.3472 79.8112 33.6884 79.4945L33.4718 79.9452C34.1997 80.2951 34.9768 80.4698 35.8001 80.4698V79.9698ZM37.5654 79.6285C37.0098 79.8558 36.422 79.9698 35.8001 79.9698V80.4698C36.4849 80.4698 37.1371 80.3439 37.7548 80.0912L37.5654 79.6285ZM39.0461 78.6604C38.6297 79.0642 38.1361 79.3875 37.5629 79.6295L37.7574 80.0902C38.3841 79.8255 38.9306 79.4689 39.3941 79.0193L39.0461 78.6604ZM40.0514 77.2188C39.8112 77.7625 39.4765 78.2426 39.046 78.6604L39.3942 79.0192C39.8704 78.5571 40.2424 78.0238 40.5088 77.4209L40.0514 77.2188ZM40.4301 75.4798C40.4301 76.098 40.3042 76.6752 40.0534 77.2144L40.5068 77.4253C40.7893 76.8178 40.9301 76.1684 40.9301 75.4798H40.4301ZM40.4301 65.6798V75.4798H40.9301V65.6798H40.4301ZM40.1401 65.4098C40.2839 65.4098 40.3454 65.4446 40.3717 65.4699C40.3963 65.4936 40.4301 65.5475 40.4301 65.6798H40.9301C40.9301 65.4655 40.874 65.2594 40.7185 65.1098C40.5648 64.9618 40.3563 64.9098 40.1401 64.9098V65.4098ZM37.1801 65.4098H40.1401V64.9098H37.1801V65.4098ZM37.0501 65.5598C37.0501 65.4728 37.0716 65.4471 37.0764 65.442C37.0812 65.4369 37.1059 65.4141 37.1932 65.4095L37.167 64.9102C37.001 64.9189 36.8357 64.9694 36.7139 65.0977C36.592 65.2259 36.5501 65.3936 36.5501 65.5598H37.0501ZM60.7306 74.0492C60.5561 73.6005 60.4676 73.1116 60.4676 72.5798H59.9676C59.9676 73.1681 60.0658 73.7191 60.2646 74.2305L60.7306 74.0492ZM61.461 75.23C61.1501 74.8942 60.9065 74.5014 60.7306 74.0492L60.2646 74.2305C60.4621 74.7383 60.7384 75.1855 61.0942 75.5697L61.461 75.23ZM62.5815 76.0125C62.1415 75.8113 61.7679 75.5491 61.4578 75.2266L61.0974 75.5731C61.454 75.9439 61.8803 76.2417 62.3737 76.4672L62.5815 76.0125ZM63.9976 76.2898C63.4822 76.2898 63.0093 76.1957 62.5761 76.0101L62.3791 76.4696C62.8792 76.684 63.4197 76.7898 63.9976 76.7898V76.2898ZM65.4191 76.0101C64.9859 76.1957 64.513 76.2898 63.9976 76.2898V76.7898C64.5755 76.7898 65.116 76.684 65.6161 76.4696L65.4191 76.0101ZM66.5374 75.2266C66.2273 75.5491 65.8537 75.8113 65.4137 76.0125L65.6215 76.4672C66.1149 76.2417 66.5413 75.9439 66.8978 75.5731L66.5374 75.2266ZM67.2646 74.0492C67.0888 74.5014 66.8451 74.8942 66.5342 75.23L66.9011 75.5697C67.2568 75.1855 67.5331 74.7383 67.7306 74.2305L67.2646 74.0492ZM67.5276 72.5798C67.5276 73.1116 67.4391 73.6006 67.2646 74.0492L67.7306 74.2305C67.9295 73.7191 68.0276 73.1681 68.0276 72.5798H67.5276ZM67.2646 71.1305C67.4394 71.5798 67.5276 72.0622 67.5276 72.5798H68.0276C68.0276 72.0041 67.9292 71.4599 67.7306 70.9492L67.2646 71.1305ZM66.5342 69.9497C66.8451 70.2855 67.0888 70.6783 67.2646 71.1305L67.7306 70.9492C67.5331 70.4414 67.2568 69.9942 66.9011 69.61L66.5342 69.9497ZM65.4191 69.1696C65.8547 69.3563 66.2255 69.6163 66.5342 69.9497L66.9011 69.61C66.5431 69.2234 66.1138 68.9234 65.6161 68.7101L65.4191 69.1696ZM63.9976 68.8698C64.5108 68.8698 64.9817 68.9698 65.4137 69.1672L65.6215 68.7125C65.1202 68.4833 64.5778 68.3698 63.9976 68.3698V68.8698ZM62.5815 69.1672C63.0135 68.9698 63.4844 68.8698 63.9976 68.8698V68.3698C63.4175 68.3698 62.8751 68.4833 62.3737 68.7125L62.5815 69.1672ZM61.461 69.9497C61.7697 69.6163 62.1405 69.3563 62.5761 69.1696L62.3791 68.7101C61.8814 68.9234 61.4521 69.2234 61.0942 69.61L61.461 69.9497ZM60.7306 71.1305C60.9065 70.6783 61.1501 70.2855 61.461 69.9497L61.0942 69.61C60.7384 69.9942 60.4621 70.4414 60.2646 70.9492L60.7306 71.1305ZM60.4676 72.5798C60.4676 72.0622 60.5559 71.5798 60.7306 71.1305L60.2646 70.9492C60.066 71.4599 59.9676 72.0041 59.9676 72.5798H60.4676ZM56.7283 69.5202C56.3138 70.4736 56.1076 71.5011 56.1076 72.5998H56.6076C56.6076 71.5653 56.8014 70.6061 57.1869 69.7195L56.7283 69.5202ZM58.3991 67.0048C57.6964 67.7212 57.1395 68.5609 56.7278 69.5214L57.1874 69.7183C57.5758 68.8122 58.0988 68.0251 58.7561 67.3549L58.3991 67.0048ZM60.9191 65.3101C59.9576 65.7221 59.1175 66.2864 58.4008 67.0031L58.7544 67.3566C59.4244 66.6866 60.2109 66.1576 61.1161 65.7696L60.9191 65.3101ZM63.9976 64.6898C62.9117 64.6898 61.8847 64.8962 60.9191 65.3101L61.1161 65.7696C62.0171 65.3835 62.9768 65.1898 63.9976 65.1898V64.6898ZM67.0573 65.3106C66.1043 64.8962 65.0835 64.6898 63.9976 64.6898V65.1898C65.0184 65.1898 65.9709 65.3835 66.8579 65.7691L67.0573 65.3106ZM69.5744 67.0031C68.8578 66.2864 68.0176 65.7221 67.0561 65.3101L66.8591 65.7696C67.7643 66.1576 68.5508 66.6866 69.2208 67.3566L69.5744 67.0031ZM71.2674 69.5214C70.8553 68.5599 70.291 67.7197 69.5744 67.0031L69.2208 67.3566C69.8909 68.0267 70.4199 68.8132 70.8078 69.7183L71.2674 69.5214ZM71.8876 72.5998C71.8876 71.5011 71.6814 70.4736 71.2669 69.5202L70.8083 69.7195C71.1938 70.6061 71.3876 71.5653 71.3876 72.5998H71.8876ZM71.2674 75.6783C71.6812 74.7127 71.8876 73.6857 71.8876 72.5998H71.3876C71.3876 73.6206 71.194 74.5803 70.8078 75.4814L71.2674 75.6783ZM69.5744 78.1766C70.2904 77.4606 70.8547 76.6276 71.2669 75.6795L70.8083 75.4802C70.4206 76.3721 69.8915 77.1524 69.2208 77.8231L69.5744 78.1766ZM67.0561 79.8496C68.0166 79.438 68.8562 78.881 69.5727 78.1783L69.2226 77.8214C68.5523 78.4787 67.7653 79.0017 66.8591 79.3901L67.0561 79.8496ZM63.9976 80.4698C65.0835 80.4698 66.1043 80.2635 67.0573 79.8491L66.8579 79.3906C65.9709 79.7762 65.0184 79.9698 63.9976 79.9698V80.4698ZM60.9191 79.8496C61.8847 80.2635 62.9117 80.4698 63.9976 80.4698V79.9698C62.9768 79.9698 62.0171 79.7762 61.1161 79.3901L60.9191 79.8496ZM58.4026 78.1783C59.119 78.881 59.9586 79.438 60.9191 79.8496L61.1161 79.3901C60.2099 79.0017 59.4229 78.4787 58.7527 77.8214L58.4026 78.1783ZM56.7283 75.6795C57.1401 76.6266 57.697 77.459 58.3991 78.1749L58.7561 77.8248C58.0982 77.154 57.5751 76.3731 57.1869 75.4802L56.7283 75.6795ZM56.1076 72.5998C56.1076 73.6857 56.314 74.7127 56.7278 75.6783L57.1874 75.4814C56.8012 74.5803 56.6076 73.6206 56.6076 72.5998H56.1076ZM83.2824 79.4298L78.0224 70.7898L77.5953 71.0498L82.8553 79.6898L83.2824 79.4298ZM83.7889 79.7498C83.5818 79.7498 83.4185 79.66 83.2841 79.4327L82.8536 79.687C83.0659 80.0463 83.3826 80.2498 83.7889 80.2498V79.7498ZM86.7289 79.7498H83.7889V80.2498H86.7289V79.7498ZM86.9589 79.5598C86.9589 79.6621 86.932 79.6945 86.9199 79.7056C86.9038 79.7204 86.8555 79.7498 86.7289 79.7498V80.2498C86.9223 80.2498 87.114 80.206 87.2578 80.0741C87.4057 79.9385 87.4589 79.7509 87.4589 79.5598H86.9589ZM86.9589 65.5998V79.5598H87.4589V65.5998H86.9589ZM86.8989 65.4798C86.9426 65.5126 86.9589 65.5452 86.9589 65.5998H87.4589C87.4589 65.3878 87.3685 65.2071 87.1989 65.0798L86.8989 65.4798ZM86.7289 65.4098C86.7691 65.4098 86.8245 65.4241 86.8989 65.4798L87.1989 65.0798C87.0599 64.9756 86.9019 64.9098 86.7289 64.9098V65.4098ZM83.9489 65.4098H86.7289V64.9098H83.9489V65.4098ZM83.7987 65.4625C83.8219 65.4354 83.8597 65.4098 83.9489 65.4098V64.9098C83.7447 64.9098 83.5558 64.9776 83.419 65.1371L83.7987 65.4625ZM83.7389 65.5998C83.7389 65.5417 83.7556 65.5067 83.7856 65.4766L83.4321 65.1231C83.3021 65.253 83.2389 65.418 83.2389 65.5998H83.7389ZM83.7389 73.6998V65.5998H83.2389V73.6998H83.7389ZM78.2761 65.7312L83.2761 73.8312L83.7016 73.5685L78.7016 65.4685L78.2761 65.7312ZM77.7689 65.4098C77.9598 65.4098 78.1273 65.4973 78.2779 65.7341L78.6998 65.4656C78.4771 65.1157 78.1646 64.9098 77.7689 64.9098V65.4098ZM74.5289 65.4098H77.7689V64.9098H74.5289V65.4098ZM74.4123 65.4452C74.4192 65.4355 74.4379 65.4098 74.5289 65.4098V64.9098C74.3264 64.9098 74.1319 64.9775 74.0054 65.1545L74.4123 65.4452ZM74.3589 65.5998C74.3589 65.5289 74.3773 65.4882 74.4009 65.4599L74.0168 65.1398C73.9071 65.2715 73.8589 65.4308 73.8589 65.5998H74.3589ZM74.3589 79.5598V65.5998H73.8589V79.5598H74.3589ZM74.5289 79.7498C74.4304 79.7498 74.4018 79.7247 74.3947 79.7172C74.3855 79.7076 74.3589 79.6708 74.3589 79.5598H73.8589C73.8589 79.7422 73.9022 79.9254 74.033 80.0625C74.1659 80.2017 74.3473 80.2498 74.5289 80.2498V79.7498ZM77.3289 79.7498H74.5289V80.2498H77.3289V79.7498ZM77.5589 79.5598C77.5589 79.6621 77.532 79.6945 77.5199 79.7056C77.5038 79.7204 77.4555 79.7498 77.3289 79.7498V80.2498C77.5223 80.2498 77.714 80.206 77.8578 80.0741C78.0057 79.9385 78.0589 79.7509 78.0589 79.5598H77.5589ZM77.5589 70.9198V79.5598H78.0589V70.9198H77.5589Z"></path><defs><linearGradient id="paint0_linear_546_15781" x1="63.68" x2="63.68" y1="23.5" y2="104.5" gradientUnits="userSpaceOnUse"><stop stop-color="#C1E000"></stop><stop offset="1" stop-color="#8CAF00"></stop></linearGradient><linearGradient id="paint1_linear_546_15781" x1="63.68" x2="63.68" y1="23.5" y2="104.5" gradientUnits="userSpaceOnUse"><stop stop-color="#C1E000"></stop><stop offset="1" stop-color="#8CAF00"></stop></linearGradient></defs></svg>