<svg height="297mm" viewBox="0 0 744.09448819 1052.3622047" width="210mm" xmlns="http://www.w3.org/2000/svg" xmlns:xlink="http://www.w3.org/1999/xlink"><linearGradient id="a" gradientUnits="userSpaceOnUse" x1="283.08621720611" x2="562.7814780067" y1="711.57839206188" y2="364.79570194336"><stop offset="0" stop-color="#4e505d"/><stop offset="1" stop-color="#7a8597"/></linearGradient><g transform="translate(-13.237505 .023333)"><path d="m203.2375 322.33887h400v400h-400z" fill="none"/><path d="m203.27757 322.39087h400v400h-400z" fill="none"/><g fill-rule="evenodd"><path d="m459.63277 322.36227-195.13672.0195c-11.38911-.0191-17.07144 5.61131-17.02344 16.83203-.0314 61.06609-.038 148.03499-.0332 234.26368 4.46812-2.18476 9.44067-3.4043 14.5332-3.4043h283.48829c5.09405 0 10.06798 1.22029 14.5371 3.40625l.002-151.03906c-5.1936.47604-20.79145 1.82483-38.26953 2.47656-10.61175.39565-21.67511.54541-31.78321-.0684-5.05405-.30687-9.84436-.77476-14.74023-1.74609-4.89588-.97133-6.72004-.57785-13.7207-6.60743-6.19763-5.33794-7.3876-13.41967-7.72266-22.32812-.33507-8.90845.65027-17.33283 1.75195-25.95117 2.20336-17.23667 4.84052-35.66105 4.24219-44.08594l-.125-1.76758zm35.65625 50.90625c-.0523.3951-.12783.89653-.17773 1.28711-.48825 3.81953-.85419 7.37758-1.0918 10.41016 3.96859.21169 8.5956.27568 13.56641.23828-2.04702-2.04541-3.98331-4.0427-6.06446-6.08399-2.2399-2.19699-4.00316-3.70652-6.23242-5.85156zm-1.55859 19.02734c.0686 1.71999.6109 1.45369 0 0zm-228.29688 213.77735v98.29883h276.56641v-98.29883z" fill="url(#a)"/><path d="m474.69409 322.35921c4.54635-1.18483 85.25811 76.62516 85.25811 84.98046 0 0-75.44211 7.35253-86.90512-1.29887-11.46301-8.65141 3.62243-55.86651 1.64701-83.68159z" fill="#99b000"/><path d="m285.04683 467.77829c-5.03585 0-9.08984 4.05398-9.08984 9.08984s4.05399 9.08984 9.08984 9.08984h218.16016c5.03586 0 9.08984-4.05398 9.08984-9.08984s-4.05398-9.08984-9.08984-9.08984zm0 54.54101c-5.03585 0-9.08984 4.05399-9.08984 9.08985 0 5.03585 4.05399 9.08984 9.08984 9.08984h127.25977c5.03585 0 9.0918-4.05399 9.0918-9.08984 0-5.03586-4.05595-9.08985-9.0918-9.08985z" fill="#fff"/></g><path d="m261.97333 588.07287h283.48763c8.04662 0 14.53874 5.94407 14.53874 13.3122v107.67406c0 7.36822-6.49212 13.31231-14.53874 13.31231h-283.48763c-8.04748 0-14.53957-5.94409-14.53957-13.31231v-107.67406c0-7.36813 6.49209-13.3122 14.53957-13.3122z" fill="#99b000"/></g><text fill="#252525" font-family="sans-serif" font-size="131.352524" letter-spacing="0" transform="scale(.8468717 1.1808164)" word-spacing="0" x="286.5159" y="602.03723"><tspan fill="#fff" font-family="arial" font-weight="bold" x="286.5159" y="602.03723">JSON</tspan></text></svg>